<svg width="14" height="14" viewBox="0 0 14 14" fill="none" xmlns="http://www.w3.org/2000/svg">
<g clip-path="url(#clip0_879_44097)">
<path d="M4.98856 6.61042L4.98842 6.61032C4.1693 5.99661 3.63773 5.01997 3.63773 3.91777C3.63773 2.10402 5.07445 0.625678 6.87109 0.557898L6.87155 0.554956H7.0001C8.85653 0.554956 10.3614 2.06095 10.3614 3.91726C10.3614 5.01894 9.82987 5.99541 9.0114 6.60916C9.01138 6.60917 9.01136 6.60919 9.01134 6.60921L8.83122 6.74442L9.04529 6.81481C9.0453 6.81481 9.04531 6.81482 9.04532 6.81482C9.86989 7.08578 10.6378 7.52127 11.3016 8.10107L11.3016 8.10111C11.4684 8.24689 11.4847 8.49091 11.3394 8.65726L11.3391 8.65759C11.1929 8.82395 10.949 8.83881 10.7832 8.69395L10.8819 8.58099L10.7832 8.69395C9.77104 7.80959 8.48195 7.30916 7.13941 7.27625H7.12757L7.1226 7.27643C7.08111 7.27795 7.03822 7.27953 6.9985 7.27953C6.95959 7.27953 6.9185 7.27801 6.87805 7.27652L6.87052 7.27625H6.85922C4.20642 7.34106 1.91045 9.24287 1.36814 11.8468L1.36808 11.8471C1.32769 12.0393 1.37695 12.2406 1.50079 12.3934L1.51892 12.4157C1.60017 12.5064 1.76402 12.6326 2.00113 12.6326H6.51291C6.73379 12.6326 6.90682 12.8061 6.90682 13.027C6.90682 13.2492 6.73312 13.4209 6.51291 13.4209H2.00113C1.56654 13.4209 1.16344 13.2288 0.889449 12.892L0.889424 12.892C0.61365 12.5528 0.507996 12.1163 0.597558 11.6872L4.98856 6.61042ZM4.98856 6.61042L5.16897 6.74525M4.98856 6.61042L5.16897 6.74525M7.8614 11.061L7.96615 10.9537L7.96621 10.9537C7.96623 10.9538 7.96625 10.9538 7.96627 10.9538L9.59855 12.5462L9.60685 12.5543L9.60707 12.5546C9.71314 12.6487 9.83827 12.6606 9.90494 12.6559L9.90551 12.6559C9.97144 12.6515 10.0911 12.6244 10.1838 12.5199L12.7177 8.98412L12.7178 8.98398C12.7811 8.89585 12.8718 8.84017 12.9733 8.82387L13.0492 8.81167L13.0572 8.81973L9.94887 13.4437L9.95874 13.443C10.2897 13.4212 10.6005 13.2595 10.8094 13.0015L10.8047 13.0062L10.8031 13.0078L10.802 13.0068M7.8614 11.061C7.76296 10.9648 7.61312 10.967 7.51633 11.066C7.42008 11.1644 7.42172 11.3137 7.52016 11.4105L9.15535 13.0062C9.35004 13.1916 9.61145 13.295 9.87942 13.295C9.90622 13.295 9.92864 13.295 9.94723 13.2933M7.8614 11.061L9.4938 12.6535M7.8614 11.061L9.4938 12.6535M9.94723 13.2933V13.4433H9.94887V13.4436C9.9522 13.4434 9.95549 13.4432 9.95873 13.4429C9.9593 13.4428 9.95986 13.4428 9.96042 13.4427L9.95371 13.3667L9.94887 13.3119L9.94723 13.2933ZM9.94723 13.2933H9.94887C10.1959 13.277 10.4306 13.1713 10.6076 13.0001C10.6242 13.0151 10.6424 13.0284 10.6567 13.035C10.681 13.041 10.7226 13.0417 10.739 13.0388C10.7495 13.0359 10.7665 13.0294 10.7731 13.0262C10.7856 13.0198 10.7943 13.0131 10.7973 13.0107C10.7991 13.0093 10.8006 13.008 10.802 13.0068M10.802 13.0068C10.8027 13.0063 10.8032 13.0057 10.8038 13.0053C10.8047 13.0044 10.8055 13.0037 10.8061 13.0031C10.8086 13.0009 10.8106 12.9989 10.8119 12.9975C10.8125 12.9969 10.813 12.9964 10.8133 12.9961L10.8148 12.9945L10.8153 12.9939L10.816 12.9931L10.817 12.9918L10.7444 12.9373L10.7101 12.9116L10.697 12.9018L10.7107 12.9154L10.7148 12.9196L10.802 13.0068ZM9.4938 12.6535L9.49544 12.6557C9.64419 12.7957 9.82192 12.8121 9.91544 12.8056C10.0062 12.7996 10.173 12.7624 10.3015 12.6131L9.4938 12.6535ZM5.16897 6.74525L4.95434 6.81591C4.95434 6.81591 4.95434 6.81591 4.95434 6.81591C4.19104 7.06717 3.47404 7.45838 2.84699 7.97401C1.69741 8.91932 0.899277 10.2389 0.597573 11.6872L5.16897 6.74525ZM4.42388 4.03523V3.91725C4.42388 2.50179 5.57973 1.34523 6.99483 1.34327L6.99483 1.34329H6.99893C8.41569 1.34329 9.57347 2.5001 9.57347 3.91727C9.57347 5.2906 8.48753 6.4205 7.12978 6.48821L7.12977 6.48794L7.12068 6.48895L7.11919 6.48911C7.0778 6.48803 7.03788 6.48748 6.99944 6.48748C6.97372 6.48748 6.94595 6.48798 6.91914 6.48847C6.90584 6.48871 6.89277 6.48895 6.88031 6.48912H6.87978L6.87819 6.48895L6.87822 6.48867L6.86906 6.48821C5.60298 6.42537 4.60508 5.42448 4.47614 4.16989L4.4623 4.03523H4.42388Z" fill="#545F7D" stroke="#545F7D" stroke-width="0.3"/>
</g>
<defs>
<clipPath id="clip0_879_44097">
<rect width="14" height="14" fill="white"/>
</clipPath>
</defs>
</svg>
